# xmcd
#
# Track frame offsets: 
#        150
#        14498
#        29272
#        45418
#        62300
#        81856
#        98563
#        114130
#        136424
#        149529
#        162629
#        176674
#        191827
#        207642
#        224217
#        245051
#        255502
#        269151
#        285420
#        300151
#        313068
#
# Disc length: 4373 seconds
#
# Revision: 2
# Processed by: cddbd v1.5.2PL0 Copyright (c) Steve Scherf et al.
# Submitted via: ExactAudioCopy v1.1
#
DISCID=3a111315
DTITLE=Hi-Fi - The Best (Легенды Русского Радио)
DYEAR=1900
DGENRE=Pop
TTITLE0=Седьмой Лепесток
TTITLE1=За Мной
TTITLE2=Не Дано
TTITLE3=Беспризорник
TTITLE4=Черный Ворон
TTITLE5=Глупые Люди
TTITLE6=Почтовый Поезд
TTITLE7=Арабика
TTITLE8=Куба
TTITLE9=Он (Запоминай)
TTITLE10=Средняя Школа № 7
TTITLE11=Все В Огонь (Песня Царевны)
TTITLE12=Ты Прости
TTITLE13=Childhood
TTITLE14=Нить
TTITLE15=Я кричу
TTITLE16=Так Легко
TTITLE17=Call Me Misha
TTITLE18=Я Люблю
TTITLE19=Бомбей
TTITLE20=Про Лето
EXTD=
EXTT0=
EXTT1=
EXTT2=
EXTT3=
EXTT4=
EXTT5=
EXTT6=
EXTT7=
EXTT8=
EXTT9=
EXTT10=
EXTT11=
EXTT12=
EXTT13=
EXTT14=
EXTT15=
EXTT16=
EXTT17=
EXTT18=
EXTT19=
EXTT20=
PLAYORDER=
